<?xml version="1.0" standalone="no"?>
<!DOCTYPE svg PUBLIC "-//W3C//DTD SVG 20010904//EN"
 "http://www.w3.org/TR/2001/REC-SVG-20010904/DTD/svg10.dtd">
<svg version="1.0" xmlns="http://www.w3.org/2000/svg"
 width="1184.000000pt" height="1184.000000pt" viewBox="0 0 1184.000000 1184.000000"
 preserveAspectRatio="xMidYMid meet">
<metadata>
Created by potrace 1.11, written by Peter Selinger 2001-2013
</metadata>
<g transform="translate(0.000000,1184.000000) scale(0.100000,-0.100000)"
fill="#000000" stroke="none">
<path d="M4408 9622 l-57 -3 3 -1377 c1 -757 6 -1393 10 -1412 4 -19 15 -60
24 -90 8 -30 17 -61 19 -67 7 -28 10 -39 20 -63 6 -14 20 -52 32 -85 13 -33
29 -75 37 -92 105 -241 156 -375 146 -384 -7 -7 -231 -84 -244 -84 -5 0 -8 3
-8 8 0 4 -7 21 -15 37 -9 17 -13 30 -11 30 3 0 -2 21 -10 48 -8 26 -17 57 -20
70 -11 56 -75 285 -99 357 -32 98 -85 211 -127 274 -47 68 -184 202 -298 291
-25 19 -47 38 -48 42 -2 4 -9 8 -15 8 -7 0 -25 11 -41 25 -16 14 -33 25 -37
25 -4 0 -14 6 -21 13 -52 49 -425 220 -528 242 -8 2 -44 11 -80 20 -36 10 -74
19 -85 21 -11 1 -29 5 -40 7 -23 5 -84 15 -135 23 -30 4 -246 16 -275 15 -5 0
-55 -3 -110 -6 -55 -3 -107 -6 -115 -6 -52 -3 -270 -43 -350 -64 -105 -29
-109 -30 -130 -37 -8 -3 -44 -16 -80 -29 -106 -36 -316 -135 -379 -177 -14
-10 -38 -24 -54 -32 -15 -7 -27 -17 -27 -22 0 -4 -5 -8 -11 -8 -10 0 -164
-107 -191 -133 -7 -7 -35 -30 -63 -52 -123 -97 -357 -354 -455 -500 -19 -27
-37 -51 -42 -53 -4 -2 -8 -7 -8 -12 0 -4 -25 -48 -56 -96 -67 -107 -180 -335
-227 -459 -83 -216 -151 -471 -172 -640 -4 -27 -8 -57 -10 -65 -19 -72 -27
-547 -11 -650 4 -25 7 -52 7 -60 1 -26 21 -153 35 -217 3 -16 7 -37 9 -48 12
-74 90 -320 135 -430 26 -62 124 -258 154 -309 20 -32 36 -62 36 -67 0 -5 4
-9 9 -9 5 0 13 -9 16 -21 4 -12 14 -28 22 -37 8 -10 38 -49 66 -88 100 -138
267 -317 383 -409 27 -22 51 -42 54 -45 14 -14 94 -71 165 -117 44 -29 85 -56
91 -60 24 -18 192 -104 254 -131 25 -11 62 -27 82 -36 20 -9 72 -28 115 -42
43 -14 87 -29 98 -34 16 -7 60 -19 77 -21 3 0 66 -15 103 -25 53 -13 161 -32
220 -39 17 -2 55 -7 85 -11 118 -16 545 -9 647 11 11 2 38 6 59 10 120 18 158
27 297 69 63 20 142 47 174 62 123 55 190 89 241 121 29 18 55 33 57 33 5 0
28 16 114 78 106 75 255 218 298 284 15 23 28 45 28 48 1 3 16 35 33 72 17 37
34 79 36 93 3 13 7 29 11 35 3 5 8 18 10 27 2 10 13 54 25 98 11 44 23 91 26
105 2 14 7 33 10 42 3 10 7 30 10 45 3 16 7 36 10 45 3 9 6 25 8 35 2 10 9 38
16 63 7 25 13 50 14 55 5 23 19 61 27 71 7 9 42 1 129 -26 65 -21 122 -35 126
-31 16 14 -13 -68 -101 -289 -171 -432 -181 -474 -183 -787 l-1 -223 786 5
c432 2 788 7 790 9 4 4 7 7044 4 7219 l-1 27 -732 -2 c-403 -2 -759 -4 -790
-6z m-1423 -3575 c52 -7 168 -34 223 -52 64 -22 176 -76 184 -89 4 -6 8 -7 8
-3 0 17 156 -101 227 -171 73 -74 163 -190 163 -211 0 -6 4 -11 8 -11 25 0
142 -302 157 -404 2 -17 6 -42 10 -56 3 -14 7 -56 10 -95 2 -38 5 -72 6 -75 5
-23 -10 -248 -21 -290 -5 -19 -11 -48 -14 -65 -16 -99 -94 -285 -153 -362 -13
-18 -22 -33 -19 -33 7 0 -55 -71 -125 -142 -37 -38 -72 -68 -77 -68 -6 0 -12
-4 -14 -8 -5 -15 -104 -79 -170 -110 -115 -56 -217 -89 -343 -110 -84 -14 -74
-14 -250 -15 -144 -1 -244 6 -284 19 -8 3 -29 7 -47 10 -101 16 -370 131 -410
176 -10 10 -21 18 -25 18 -14 0 -157 133 -200 187 -38 47 -97 143 -127 203
-27 55 -35 75 -47 110 -1 3 -5 12 -8 20 -9 21 -35 119 -42 155 -14 74 -19 139
-19 255 0 146 11 247 40 350 9 30 21 69 27 85 7 17 12 32 13 35 7 36 104 224
136 265 4 6 29 36 54 68 25 32 65 77 88 99 53 52 179 148 194 148 7 0 12 5 12
10 0 6 5 10 10 10 6 0 27 11 48 23 60 38 238 97 352 116 101 18 316 22 425 8z"/>
<path d="M7335 9622 c-3 -3 -25 -4 -50 -4 l-45 2 0 -147 c-1 -82 0 -251 0
-378 1 -126 1 -236 1 -242 0 -13 -1 -129 0 -160 0 -25 0 -785 0 -800 -1 -19 0
-140 0 -160 0 -24 0 -785 0 -800 0 -7 0 -42 0 -78 0 -36 0 -73 -1 -82 0 -10 0
-47 1 -83 0 -36 0 -71 0 -77 -1 -29 0 -144 0 -160 0 -24 0 -785 0 -800 0 -14
-1 -132 0 -160 0 -25 0 -785 0 -800 -1 -19 0 -140 0 -160 0 -24 0 -785 0 -800
0 -14 -1 -132 0 -160 0 -25 0 -785 0 -800 -1 -19 0 -146 0 -163 0 -8 0 -20 -1
-25 -1 -6 -2 -56 -1 -112 l1 -103 435 0 436 0 8 22 c4 12 6 33 4 47 -8 51 -8
111 0 111 5 0 5 5 2 11 -4 6 -9 421 -11 922 l-4 911 38 34 c20 19 120 114 222
212 102 98 196 188 209 199 l23 20 116 -142 c64 -78 119 -144 122 -147 5 -5
133 -160 155 -188 5 -7 19 -23 30 -35 18 -20 96 -114 118 -142 4 -5 19 -23 33
-40 14 -16 37 -46 52 -65 15 -19 34 -42 42 -50 14 -16 45 -53 124 -150 20 -25
50 -60 66 -77 17 -18 30 -35 30 -38 0 -3 10 -16 23 -29 12 -13 36 -41 53 -62
18 -22 112 -136 210 -254 304 -367 516 -623 558 -675 23 -27 51 -61 62 -75 38
-44 99 -117 114 -136 8 -11 48 -59 89 -107 66 -79 77 -87 110 -88 20 -1 41 0
46 1 6 2 28 2 50 1 45 -3 74 -3 125 -2 33 1 51 1 85 1 8 0 23 0 33 0 9 0 33 0
52 -1 19 -1 41 -1 48 0 14 1 37 1 55 0 6 0 28 0 47 0 33 1 52 1 85 1 8 0 23 0
33 0 9 0 33 0 52 -1 19 -1 41 -1 48 0 11 1 58 1 110 1 9 0 53 -1 96 -1 44 0
83 -2 87 -5 4 -2 10 0 13 4 3 5 17 7 31 4 14 -2 25 -1 25 4 0 8 -101 127 -112
132 -5 2 -8 8 -8 12 0 5 -10 20 -22 32 -25 26 -92 102 -122 139 -11 13 -33 40
-50 59 -17 20 -51 60 -76 90 -25 29 -58 67 -73 84 -16 17 -41 47 -55 66 -15
19 -34 41 -42 50 -8 9 -31 34 -50 57 -19 22 -54 63 -77 89 -88 103 -240 282
-278 328 -22 27 -49 58 -60 70 -29 32 -84 96 -130 151 -22 27 -44 53 -50 59
-5 6 -35 40 -65 76 -61 71 -100 117 -115 134 -5 6 -32 38 -60 71 -27 33 -56
67 -65 75 -9 8 -31 35 -50 60 -19 24 -42 52 -50 61 -25 26 -72 80 -125 144
-28 33 -54 65 -60 71 -5 6 -29 33 -52 60 -23 27 -51 60 -63 74 -12 14 -29 34
-38 45 -9 11 -57 68 -107 125 -49 58 -99 116 -110 129 -11 13 -25 29 -30 35
-6 6 -33 38 -60 71 -28 32 -57 66 -65 75 -8 9 -26 30 -39 46 -13 16 -38 45
-55 64 -17 20 -51 60 -76 90 -25 29 -50 58 -55 64 -6 6 -22 26 -37 44 l-27 33
32 30 c18 17 60 56 95 87 35 31 80 72 101 91 20 20 82 77 136 126 54 50 114
105 134 123 19 18 74 69 121 112 47 43 102 94 121 112 36 33 200 183 248 227
14 13 53 49 87 80 58 54 211 194 278 256 19 17 73 67 122 112 49 45 103 94
119 109 33 29 219 200 300 276 129 120 161 148 168 148 5 0 5 5 2 10 -3 6 1
10 9 10 9 0 16 4 16 9 0 12 -55 19 -72 10 -8 -4 -20 -4 -27 1 -8 4 -27 4 -42
0 -16 -5 -29 -5 -29 0 0 4 -16 4 -35 0 -19 -4 -35 -5 -35 -1 0 3 -18 6 -40 6
-22 0 -40 -3 -40 -7 0 -4 -13 -3 -29 2 -16 4 -32 6 -35 3 -7 -8 -101 -7 -113
0 -5 3 -15 2 -23 -3 -8 -5 -21 -5 -30 0 -9 5 -22 5 -29 0 -8 -4 -27 -4 -42 0
-16 5 -29 5 -29 0 0 -5 -13 -5 -30 0 -17 5 -30 5 -30 0 0 -5 -13 -5 -30 0 -17
5 -30 5 -30 0 0 -5 -13 -5 -30 0 -17 5 -30 5 -30 0 0 -5 -13 -5 -30 0 -17 5
-30 5 -30 0 0 -5 -13 -5 -30 0 -17 5 -30 5 -30 0 0 -5 -13 -5 -30 0 -17 5 -30
5 -30 0 0 -5 -13 -5 -30 0 -17 5 -32 5 -35 0 -3 -5 -15 -6 -29 0 -12 4 -29 5
-36 0 -7 -4 -19 -6 -27 -3 -12 5 -35 -12 -123 -92 -21 -19 -290 -250 -343
-295 -10 -8 -28 -24 -40 -35 -44 -39 -173 -151 -216 -185 -23 -19 -55 -46 -70
-60 -40 -37 -88 -79 -156 -135 -32 -28 -66 -57 -75 -65 -9 -8 -38 -34 -65 -57
-53 -44 -57 -47 -155 -133 -73 -64 -82 -72 -146 -125 -26 -22 -60 -52 -76 -67
-16 -16 -31 -28 -33 -28 -2 0 -16 -11 -31 -25 -16 -14 -48 -43 -72 -63 -133
-111 -232 -227 -317 -372 -24 -42 -162 -320 -199 -402 l-16 -36 -78 33 c-42
18 -76 38 -74 45 1 7 18 44 36 83 19 40 44 95 55 122 12 28 26 59 31 70 9 18
31 72 35 85 1 3 7 17 12 31 19 45 62 189 56 189 -3 0 0 7 7 15 7 8 10 15 7 15
-3 0 -1 17 5 38 5 20 11 83 13 140 2 56 7 107 10 112 3 5 1 11 -5 15 -6 4 -7
12 -1 24 6 10 6 23 1 31 -5 8 -6 18 -3 23 3 5 4 34 4 65 -1 31 -2 78 -3 103
-1 25 2 51 6 57 3 6 2 13 -4 17 -6 4 -7 12 -1 24 6 10 6 23 1 31 -5 8 -6 18
-3 23 3 5 4 34 4 65 -1 31 -2 78 -3 103 -1 25 2 51 6 57 3 6 2 13 -4 17 -6 4
-7 12 -1 24 6 10 6 23 1 31 -5 8 -6 18 -3 23 3 5 4 34 4 65 -1 31 -2 78 -3
103 -1 25 2 51 6 57 3 6 2 13 -4 17 -6 4 -7 12 -1 24 6 10 6 23 1 31 -5 8 -6
18 -3 23 5 8 5 85 0 137 -2 14 0 40 4 58 4 17 3 32 -1 32 -4 0 -4 15 0 34 4
19 4 39 0 46 -4 7 -4 27 0 46 4 19 4 34 0 34 -4 0 -5 15 -1 33 4 17 5 43 4 57
-2 14 -3 32 -3 40 0 8 0 48 0 89 0 41 -3 77 -5 79 -3 3 0 11 6 18 7 8 7 14 -1
19 -6 4 -7 12 -1 24 5 9 6 23 2 30 -5 7 -5 27 -2 44 4 18 4 51 1 74 -4 23 -3
48 1 55 4 6 4 19 0 27 -4 9 -5 27 -1 41 3 14 3 43 0 65 -3 22 -3 55 1 73 3 17
3 32 -1 32 -4 0 -4 15 0 34 4 19 4 39 0 46 -4 7 -4 27 0 46 4 19 4 34 0 34 -4
0 -4 15 -1 33 4 17 4 51 1 75 -4 23 -3 45 2 48 5 3 5 11 -1 18 -6 7 -6 17 -1
26 5 8 5 21 0 31 -5 9 -7 19 -4 22 4 3 5 32 5 64 -1 32 -2 79 -3 104 -1 25 2
51 6 57 3 6 2 13 -4 17 -6 4 -7 12 -1 24 6 10 6 23 1 31 -5 8 -6 18 -3 23 3 5
4 34 4 65 -1 31 -2 78 -3 103 -1 25 2 51 6 57 3 6 2 13 -4 17 -6 4 -7 12 -1
24 5 9 6 23 2 30 -5 7 -5 28 -1 47 4 18 6 35 4 37 -3 2 -5 27 -5 55 -2 49 -3
52 -28 53 -14 1 -30 0 -36 -1 -5 -1 -17 -2 -25 -2 -79 4 -464 2 -468 -2 -2 -3
-13 -1 -24 5 -13 7 -23 7 -31 0 -8 -6 -18 -6 -26 -1 -8 4 -23 5 -34 1 -11 -4
-39 -4 -63 -1 -24 4 -46 5 -49 2z"/>
</g>
</svg>
